<svg width="32" height="32" viewBox="0 0 32 32" fill="none" xmlns="http://www.w3.org/2000/svg">
<path d="M17 3C9.28077 3 3 9.28077 3 17C3 24.7192 9.28077 31 17 31C24.7192 31 31 24.7192 31 17C31 9.28077 24.7192 3 17 3ZM17 5.15385C23.5552 5.15385 28.8462 10.4448 28.8462 17C28.8462 23.5552 23.5552 28.8462 17 28.8462C10.4448 28.8462 5.15385 23.5552 5.15385 17C5.15385 10.4448 10.4448 5.15385 17 5.15385ZM11.6154 8.38462C11.3298 8.38462 11.0558 8.49808 10.8539 8.70004C10.6519 8.902 10.5385 9.17592 10.5385 9.46154C10.5385 9.74716 10.6519 10.0211 10.8539 10.223C11.0558 10.425 11.3298 10.5385 11.6154 10.5385C11.901 10.5385 12.1749 10.425 12.3769 10.223C12.5788 10.0211 12.6923 9.74716 12.6923 9.46154C12.6923 9.17592 12.5788 8.902 12.3769 8.70004C12.1749 8.49808 11.901 8.38462 11.6154 8.38462ZM10.5385 11.6154V23.4615H12.6923V11.6154H10.5385ZM14.8462 11.6154V12.6923V23.4615H19.6923C22.9506 23.4615 25.6154 20.7968 25.6154 17.5385C25.6154 14.2801 22.9506 11.6154 19.6923 11.6154H14.8462ZM17 13.7692H19.6923C21.7863 13.7692 23.4615 15.4445 23.4615 17.5385C23.4615 19.6325 21.7863 21.3077 19.6923 21.3077H17V13.7692Z" fill="#89A3CB"/>
</svg>
