<svg width="27" height="27" viewBox="0 0 27 27" fill="none" xmlns="http://www.w3.org/2000/svg">
<path d="M26.3568 26.137L18.7823 18.2596C20.7143 16.322 21.9112 13.6509 21.9112 10.705C21.9112 4.80195 17.1092 0 11.2062 0C5.30317 0 0.501221 4.80195 0.501221 10.705C0.501221 16.608 5.30317 21.41 11.2062 21.41C13.7973 21.41 16.1754 20.4837 18.0288 18.9468L25.6217 26.8435C25.7216 26.948 25.8552 27 25.9893 27C26.1167 27 26.2436 26.9526 26.3425 26.8578C26.5454 26.6625 26.5515 26.3399 26.3568 26.137ZM11.2062 20.3904C5.86544 20.3904 1.52074 16.0457 1.52074 10.705C1.52074 5.36421 5.86544 1.01952 11.2062 1.01952C16.547 1.01952 20.8917 5.36421 20.8917 10.705C20.8917 16.0457 16.5465 20.3904 11.2062 20.3904Z" fill="#BBBBBB" fill-opacity="0.8"/>
</svg>
